<svg xmlns="http://www.w3.org/2000/svg" width="400" height="300" viewBox="0 0 400 300">
  <!-- 背景 -->
  <defs>
    <linearGradient id="bgGradient" x1="0%" y1="0%" x2="100%" y2="100%">
      <stop offset="0%" stop-color="#1a1c2e" />
      <stop offset="100%" stop-color="#2d2f48" />
    </linearGradient>
    <filter id="glow" x="-20%" y="-20%" width="140%" height="140%">
      <feGaussianBlur stdDeviation="5" result="blur" />
      <feComposite in="SourceGraphic" in2="blur" operator="over" />
    </filter>
  </defs>
  
  <rect width="400" height="300" fill="url(#bgGradient)" />
  
  <!-- 网格线 -->
  <g stroke="rgba(79, 195, 247, 0.1)" stroke-width="1">
    <line x1="50" y1="50" x2="350" y2="50" />
    <line x1="50" y1="100" x2="350" y2="100" />
    <line x1="50" y1="150" x2="350" y2="150" />
    <line x1="50" y1="200" x2="350" y2="200" />
    <line x1="50" y1="250" x2="350" y2="250" />
    <line x1="50" y1="50" x2="50" y2="250" />
    <line x1="100" y1="50" x2="100" y2="250" />
    <line x1="150" y1="50" x2="150" y2="250" />
    <line x1="200" y1="50" x2="200" y2="250" />
    <line x1="250" y1="50" x2="250" y2="250" />
    <line x1="300" y1="50" x2="300" y2="250" />
    <line x1="350" y1="50" x2="350" y2="250" />
  </g>
  
  <!-- 数据图表 -->
  <g fill="none" stroke="#4fc3f7" stroke-width="2" filter="url(#glow)">
    <path d="M 50 200 L 80 180 L 110 160 L 140 170 L 170 140 L 200 120 L 230 100 L 260 80 L 290 60 L 320 40 L 350 30" />
    <path d="M 50 220 L 80 200 L 110 190 L 140 220 L 170 200 L 200 180 L 230 160 L 260 140 L 290 130 L 320 110 L 350 100" stroke="#9c27b0" />
  </g>
  
  <!-- 数据点 -->
  <g fill="#4fc3f7">
    <circle cx="50" cy="200" r="3" />
    <circle cx="80" cy="180" r="3" />
    <circle cx="110" cy="160" r="3" />
    <circle cx="140" cy="170" r="3" />
    <circle cx="170" cy="140" r="3" />
    <circle cx="200" cy="120" r="3" />
    <circle cx="230" cy="100" r="3" />
    <circle cx="260" cy="80" r="3" />
    <circle cx="290" cy="60" r="3" />
    <circle cx="320" cy="40" r="3" />
    <circle cx="350" cy="30" r="3" />
  </g>
  <g fill="#9c27b0">
    <circle cx="50" cy="220" r="3" />
    <circle cx="80" cy="200" r="3" />
    <circle cx="110" cy="190" r="3" />
    <circle cx="140" cy="220" r="3" />
    <circle cx="170" cy="200" r="3" />
    <circle cx="200" cy="180" r="3" />
    <circle cx="230" cy="160" r="3" />
    <circle cx="260" cy="140" r="3" />
    <circle cx="290" cy="130" r="3" />
    <circle cx="320" cy="110" r="3" />
    <circle cx="350" cy="100" r="3" />
  </g>
  
  <!-- 数据分析图标 -->
  <g transform="translate(250, 50)">
    <rect x="-20" y="-20" width="40" height="40" rx="5" fill="rgba(79, 195, 247, 0.2)" stroke="#4fc3f7" stroke-width="2" />
    <line x1="-10" y1="-5" x2="10" y2="-5" stroke="#4fc3f7" stroke-width="2" />
    <line x1="-10" y1="0" x2="-5" y2="0" stroke="#4fc3f7" stroke-width="2" />
    <line x1="0" y1="0" x2="10" y2="0" stroke="#4fc3f7" stroke-width="2" />
    <line x1="-10" y1="5" x2="0" y2="5" stroke="#4fc3f7" stroke-width="2" />
  </g>
  
  <!-- 连接线 -->
  <g stroke="rgba(79, 195, 247, 0.5)" stroke-width="1" stroke-dasharray="3,3">
    <line x1="100" y1="150" x2="150" y2="100" />
    <line x1="200" y1="150" x2="250" y2="100" />
    <line x1="100" y1="200" x2="150" y2="250" />
    <line x1="200" y1="200" x2="250" y2="250" />
  </g>
  
  <!-- 数据节点 -->
  <g fill="rgba(156, 39, 176, 0.3)" stroke="#9c27b0" stroke-width="1">
    <circle cx="100" cy="150" r="10" />
    <circle cx="200" cy="150" r="10" />
    <circle cx="150" cy="100" r="10" />
    <circle cx="250" cy="100" r="10" />
    <circle cx="150" cy="250" r="10" />
    <circle cx="250" cy="250" r="10" />
  </g>
</svg>